<?xml version="1.0" standalone="no"?>
<!DOCTYPE svg PUBLIC "-//W3C//DTD SVG 20010904//EN"
 "http://www.w3.org/TR/2001/REC-SVG-20010904/DTD/svg10.dtd">
<svg version="1.0" xmlns="http://www.w3.org/2000/svg"
 width="755.000000pt" height="755.000000pt" viewBox="0 0 755.000000 755.000000"
 preserveAspectRatio="xMidYMid meet">
<metadata>
Created by potrace 1.11, written by Peter Selinger 2001-2013
</metadata>
<g transform="translate(0.000000,755.000000) scale(0.100000,-0.100000)"
fill="#000000" stroke="none">
<path d="M2746 7454 c-21 -20 -23 -40 -13 -140 6 -60 6 -61 -18 -56 -46 8 -73
-6 -84 -43 -5 -19 -8 -42 -6 -52 3 -10 7 -38 9 -63 3 -25 8 -71 12 -103 l7
-57 -51 -54 c-28 -30 -54 -67 -57 -82 -15 -66 -28 -94 -54 -121 -15 -15 -35
-41 -45 -56 -9 -16 -36 -36 -59 -47 -46 -20 -251 -223 -374 -372 -58 -70 -85
-93 -141 -123 -58 -30 -74 -44 -96 -85 -34 -63 -167 -210 -380 -420 -92 -91
-188 -191 -213 -223 -27 -35 -66 -70 -97 -88 -29 -16 -77 -56 -107 -89 -86
-96 -131 -142 -191 -192 -71 -60 -113 -124 -139 -210 -11 -37 -24 -68 -29 -68
-5 0 -23 -29 -40 -64 -57 -114 -50 -273 11 -289 25 -7 44 34 55 114 4 30 8 61
10 69 1 8 3 19 3 23 1 4 13 6 28 5 24 -3 29 2 43 40 21 56 123 159 225 227
102 69 126 91 159 148 15 25 59 74 97 108 68 60 71 62 127 62 71 1 112 -9 112
-27 0 -7 -6 -32 -14 -54 -20 -56 -13 -180 19 -347 8 -38 17 -88 20 -110 3 -22
8 -53 11 -70 3 -16 7 -97 9 -180 8 -385 15 -486 45 -605 25 -103 29 -138 33
-330 3 -118 8 -231 11 -250 7 -44 10 -271 6 -375 -3 -71 -4 -192 -1 -325 4
-209 -8 -360 -33 -408 -8 -15 -19 -47 -26 -72 -6 -24 -25 -64 -41 -87 -39 -56
-57 -99 -64 -155 -8 -60 9 -100 77 -173 30 -33 73 -95 96 -137 22 -43 70 -116
106 -163 36 -48 66 -89 66 -93 0 -4 15 -17 34 -30 38 -26 84 -27 97 -2 16 32
39 120 39 154 0 30 3 35 26 38 31 3 37 12 60 91 17 57 16 81 -2 240 -7 54 -26
48 161 52 66 1 128 3 137 4 9 0 32 14 50 31 18 16 43 30 55 30 12 0 40 7 60
15 21 8 70 17 108 18 48 3 90 13 135 32 59 25 76 27 190 27 90 1 129 4 141 14
23 20 58 22 119 8 54 -13 56 -12 125 20 60 29 80 33 135 32 104 -3 204 30 228
76 26 48 23 69 -12 104 -21 21 -28 34 -19 34 29 0 113 43 128 66 36 55 23 100
-39 134 -22 13 -56 34 -75 48 -18 14 -75 48 -125 76 l-91 52 -2 57 c-2 31 4
83 12 114 9 32 20 108 26 168 8 79 22 145 51 233 38 120 63 162 93 162 59 0
89 53 81 145 -4 46 -2 57 12 62 80 25 93 45 88 133 -2 30 -4 58 -5 61 0 4 -25
25 -53 46 -29 22 -96 84 -148 137 -106 109 -132 126 -187 126 -50 0 -58 -6
-90 -70 -20 -38 -39 -59 -68 -74 -22 -12 -61 -34 -86 -49 -25 -15 -77 -37
-115 -49 -38 -11 -85 -31 -104 -43 -19 -12 -93 -41 -165 -65 -71 -23 -139 -48
-150 -54 -29 -18 -135 -55 -170 -60 -16 -3 -59 -7 -95 -11 -140 -13 -214 -42
-314 -119 -60 -47 -95 -57 -115 -32 -6 7 -13 62 -16 122 -2 60 -7 120 -10 134
-14 61 -4 239 13 241 4 0 16 3 27 5 11 3 56 6 100 7 72 2 88 6 160 43 116 59
203 86 293 88 52 2 89 9 112 21 25 13 61 19 130 21 74 2 108 8 155 28 33 13
80 27 103 30 23 3 59 8 81 11 21 3 76 19 121 34 46 16 92 27 104 25 50 -10
157 -13 179 -5 51 20 58 137 11 179 l-25 22 40 1 c23 1 46 3 51 4 6 1 17 3 26
4 22 2 43 60 39 111 -3 41 -9 51 -67 103 -74 68 -170 134 -209 142 -45 10 -59
34 -49 80 5 22 12 56 15 75 3 19 22 73 42 120 58 141 62 153 63 211 0 38 5 61
15 69 20 17 57 97 80 173 10 32 32 77 49 100 17 23 33 53 35 67 1 14 7 33 13
43 5 10 11 32 12 50 4 36 -9 50 -134 149 -30 24 -77 76 -105 116 -53 75 -76
92 -128 92 -26 0 -42 -11 -86 -57 -30 -32 -77 -94 -106 -138 -28 -44 -67 -93
-86 -109 -43 -37 -117 -69 -194 -85 -33 -7 -89 -21 -124 -32 -35 -11 -78 -22
-95 -25 -71 -12 -175 -43 -276 -81 -8 -3 -19 -7 -25 -8 -42 -11 -151 -59 -178
-78 -50 -38 -288 -79 -317 -55 -23 19 -70 83 -70 96 0 6 31 27 69 47 83 44
212 150 371 304 65 63 136 123 163 136 26 14 65 41 85 60 56 54 171 130 279
187 81 42 110 64 172 129 70 76 136 125 179 134 86 16 184 50 192 66 19 34 11
82 -21 119 -26 30 -27 35 -12 38 48 8 119 36 131 50 26 33 14 82 -31 136 -24
28 -57 74 -72 101 -39 67 -88 132 -168 219 -21 22 -47 57 -57 76 -61 116 -183
186 -234 134z m238 -2254 c9 -43 12 -292 5 -472 l-3 -87 -68 -31 c-37 -17
-105 -40 -150 -51 -46 -11 -102 -29 -125 -40 -23 -11 -52 -22 -65 -24 -13 -2
-59 -9 -103 -16 -44 -7 -89 -18 -100 -25 -13 -8 -58 -14 -115 -15 -52 -2 -126
-11 -165 -21 -38 -10 -95 -18 -126 -18 -87 0 -90 7 -100 202 -5 90 -9 175 -9
190 0 14 -6 54 -14 87 -10 45 -11 61 -3 62 18 1 105 15 162 25 17 3 57 19 90
34 33 16 82 31 109 35 27 3 63 12 81 19 17 8 47 13 66 13 21 -1 56 11 89 30
42 24 67 31 108 32 37 0 61 6 81 21 17 11 49 27 72 35 23 9 47 19 53 24 22 18
112 38 166 37 l54 -1 10 -45z m72 -2021 c41 -38 48 -110 29 -294 -3 -33 -8
-67 -10 -75 -7 -26 -15 -121 -20 -225 -5 -109 -12 -155 -24 -168 -10 -10 -80
-27 -131 -32 -65 -7 -104 -16 -200 -45 -91 -28 -191 -53 -255 -64 -16 -3 -59
-10 -95 -16 -36 -5 -103 -23 -150 -39 -100 -34 -176 -37 -209 -7 -20 18 -21
28 -21 305 -1 227 -3 290 -14 304 -13 16 -13 55 -2 131 3 25 10 27 83 32 40 3
84 13 106 24 21 11 55 20 76 20 23 0 74 15 121 35 45 19 91 35 103 35 11 0 45
8 75 17 51 16 56 16 84 0 27 -15 33 -16 61 -3 78 36 111 45 184 51 43 4 94 15
113 25 41 21 65 18 96 -11z"/>
<path d="M4985 7342 c-20 -21 3 -55 97 -142 65 -61 96 -96 86 -98 -9 -2 -49 5
-89 15 -41 10 -101 19 -134 18 -56 0 -60 -1 -63 -25 -2 -20 18 -45 113 -134
92 -87 117 -117 127 -150 7 -22 27 -58 45 -80 31 -37 32 -41 26 -100 -3 -33
-7 -77 -7 -96 -1 -38 -2 -38 82 -24 37 6 42 4 43 -12 0 -11 2 -37 5 -60 5 -37
2 -43 -27 -65 -74 -55 -80 -65 -74 -115 3 -26 7 -50 10 -53 14 -23 30 -158 28
-241 -4 -161 -3 -290 2 -349 4 -48 2 -69 -10 -87 -15 -23 -17 -23 -41 -8 -22
15 -28 15 -62 1 -33 -14 -186 -35 -297 -42 -22 -1 -60 -12 -85 -23 -25 -12
-75 -24 -110 -27 -46 -5 -79 -15 -113 -36 -62 -37 -116 -38 -200 -3 -34 14
-65 29 -69 32 -4 4 -14 33 -22 65 -10 38 -26 70 -45 89 -20 20 -40 60 -57 112
-38 117 -71 183 -102 204 -46 32 -61 34 -86 9 -21 -21 -23 -31 -20 -95 2 -53
10 -86 29 -123 l25 -50 -34 35 c-39 42 -86 49 -109 16 -23 -33 -14 -147 18
-214 14 -31 40 -106 56 -168 17 -61 37 -125 46 -141 8 -16 17 -55 19 -86 7
-86 12 -111 23 -125 20 -24 40 -158 56 -384 3 -34 9 -70 14 -80 5 -9 12 -48
16 -87 3 -38 9 -90 12 -115 23 -200 35 -623 29 -1017 -4 -220 -6 -231 -50
-275 -78 -78 -75 -202 8 -365 22 -44 32 -54 65 -64 32 -9 48 -24 82 -75 56
-83 79 -95 127 -69 43 23 69 71 73 135 3 57 8 70 25 70 27 0 66 68 75 132 7
52 6 384 -3 1232 -1 78 -6 123 -19 156 -29 76 -42 168 -44 305 -1 72 -6 139
-12 150 -6 11 -13 82 -16 157 -3 76 -9 142 -12 148 -4 6 9 10 32 11 21 0 45 2
53 3 8 2 54 6 103 10 59 4 101 13 129 27 23 12 71 25 108 30 68 8 112 32 252
136 51 38 60 42 82 32 39 -18 40 -39 6 -70 -16 -15 -30 -31 -30 -35 0 -5 14
-22 31 -40 l30 -31 0 -182 c0 -99 -5 -198 -10 -219 -12 -46 -12 -110 0 -182 5
-30 11 -113 14 -185 2 -71 6 -202 9 -290 13 -379 13 -792 1 -880 -7 -49 -10
-121 -8 -160 2 -38 3 -79 2 -90 -7 -66 1 -161 16 -185 12 -20 15 -300 3 -329
-6 -14 -12 -73 -13 -131 -1 -58 -9 -140 -19 -182 -11 -47 -15 -92 -11 -115 3
-21 9 -63 12 -93 5 -52 3 -57 -34 -105 -44 -56 -65 -102 -65 -142 0 -17 -17
-47 -44 -81 -51 -62 -58 -84 -52 -153 5 -50 8 -53 139 -183 74 -73 145 -149
159 -169 14 -20 42 -45 62 -55 35 -18 41 -18 95 -5 31 9 68 22 81 31 24 15 24
19 18 98 l-7 82 33 7 c18 4 43 13 56 21 22 14 23 20 21 122 -1 59 -1 172 0
252 2 127 -5 271 -14 321 -2 9 -6 52 -10 95 -4 43 -9 88 -11 99 -6 31 -5 257
1 285 3 14 8 61 11 105 5 73 4 82 -15 99 -26 23 -26 27 -2 79 15 32 20 66 20
138 0 53 3 112 6 132 4 23 -1 60 -15 104 -11 37 -25 102 -31 143 -6 41 -12 86
-15 100 -2 14 -3 88 -2 165 1 77 1 187 0 245 -1 58 3 126 9 153 15 64 10 471
-6 497 -3 4 -4 115 -3 246 1 132 1 344 -1 472 -2 127 1 232 5 232 5 0 23 -7
39 -16 17 -9 50 -18 75 -20 25 -2 62 -6 83 -9 23 -3 53 2 74 10 19 8 61 15 92
15 38 0 67 6 91 20 19 11 55 30 80 42 25 11 73 47 107 79 55 53 133 99 167 99
7 0 26 -15 43 -32 25 -26 33 -45 38 -90 4 -32 6 -59 4 -61 -2 -2 17 -27 44
-56 26 -29 47 -57 47 -62 0 -5 -18 -25 -40 -45 -49 -45 -64 -94 -53 -172 11
-71 9 -217 -3 -347 -5 -55 -9 -172 -9 -260 0 -135 3 -165 18 -193 15 -28 16
-39 7 -65 -7 -18 -14 -72 -16 -121 -3 -49 -9 -96 -14 -106 -19 -36 -23 -83
-24 -332 -1 -142 -4 -260 -8 -263 -10 -11 -192 55 -217 79 -47 43 -195 137
-296 187 -157 78 -189 75 -155 -13 23 -60 46 -91 144 -191 42 -42 76 -82 76
-88 0 -10 -35 8 -100 51 -50 33 -187 90 -216 90 -22 0 -17 -51 11 -106 13 -27
63 -89 109 -136 47 -48 92 -102 102 -120 9 -18 36 -58 59 -88 24 -30 80 -118
125 -195 46 -77 96 -154 111 -170 29 -31 37 -55 38 -112 1 -20 10 -40 24 -53
26 -26 79 -49 101 -46 29 4 95 79 113 125 9 26 46 93 82 149 36 57 66 107 67
110 2 34 21 84 44 117 48 70 62 106 76 194 12 74 17 88 43 108 33 26 57 88 66
173 8 74 13 99 25 140 6 19 13 152 16 295 3 143 8 276 11 295 3 19 5 64 3 100
-5 81 -5 222 -1 275 2 22 0 65 -4 96 -5 41 -3 65 7 85 17 33 15 70 -8 157 -22
85 -20 164 7 259 7 24 13 108 15 188 2 80 3 153 4 162 0 11 20 28 52 44 29 15
58 34 65 43 18 23 16 61 -6 102 l-20 36 65 33 c46 23 66 39 70 57 11 43 -17
103 -82 172 -131 141 -171 188 -203 238 -28 44 -86 101 -129 127 -21 13 -76
-30 -112 -89 -55 -88 -153 -181 -213 -201 -28 -9 -98 -39 -155 -66 -89 -42
-157 -63 -272 -84 -43 -8 -62 -16 -110 -44 -25 -15 -62 -33 -82 -39 -72 -24
-165 24 -189 96 -15 48 -10 376 7 404 4 6 12 190 18 382 4 113 5 120 31 147
31 33 41 93 20 126 -12 19 -10 23 30 49 24 15 51 36 61 46 18 20 25 84 12 112
-5 10 -64 45 -131 78 -84 41 -144 78 -192 120 -88 76 -117 90 -197 93 -34 2
-83 9 -108 16 -45 13 -175 21 -185 12z m1499 -1760 c6 -10 -35 -72 -48 -72 -4
0 -6 10 -2 23 3 12 6 30 6 40 0 17 34 25 44 9z m-944 -52 c0 -5 -2 -10 -4 -10
-3 0 -8 5 -11 10 -3 6 -1 10 4 10 6 0 11 -4 11 -10z"/>
</g>
</svg>
